<svg xmlns="http://www.w3.org/2000/svg" xmlns:xlink="http://www.w3.org/1999/xlink" width="1080" zoomAndPan="magnify" viewBox="0 0 810 809.999993" height="1080" preserveAspectRatio="xMidYMid meet" version="1.0"><defs><clipPath id="dd4eb9e375"><path d="M 120.550781 223.105469 L 689.378906 223.105469 L 689.378906 586.738281 L 120.550781 586.738281 Z M 120.550781 223.105469 " clip-rule="nonzero"/></clipPath><clipPath id="da938c4008"><path d="M 120.550781 224 L 689.378906 224 L 689.378906 586.738281 L 120.550781 586.738281 Z M 120.550781 224 " clip-rule="nonzero"/></clipPath><clipPath id="b8fce1fa80"><path d="M 346.78125 346.78125 L 475.324219 346.78125 L 475.324219 475.324219 L 346.78125 475.324219 Z M 346.78125 346.78125 " clip-rule="nonzero"/></clipPath><clipPath id="3322ca9fca"><path d="M 411.050781 346.78125 C 375.554688 346.78125 346.78125 375.554688 346.78125 411.050781 C 346.78125 446.546875 375.554688 475.324219 411.050781 475.324219 C 446.546875 475.324219 475.324219 446.546875 475.324219 411.050781 C 475.324219 375.554688 446.546875 346.78125 411.050781 346.78125 Z M 411.050781 346.78125 " clip-rule="nonzero"/></clipPath><clipPath id="c7ba575e7f"><path d="M 318.152344 337.257812 L 492 337.257812 L 492 473 L 318.152344 473 Z M 318.152344 337.257812 " clip-rule="nonzero"/></clipPath></defs><g clip-path="url(#dd4eb9e375)"><path fill="#000000" d="M 175.101562 348.5 C 185.558594 359.566406 197.476562 371.015625 210.691406 382.640625 C 223.941406 394.273438 238.484375 406.074219 254.023438 417.808594 C 285.097656 441.292969 320.195312 464.511719 356.679688 485.722656 C 393.175781 506.917969 430.996094 526.050781 467.289062 541.667969 C 503.601562 557.320312 538.234375 569.273438 568.699219 576.867188 C 583.917969 580.636719 598.117188 583.328125 610.980469 584.863281 C 623.847656 586.386719 635.339844 586.707031 645.289062 585.875 C 665.203125 584.207031 678.785156 577.789062 685.09375 567.148438 C 691.410156 556.507812 690.285156 541.570312 681.9375 523.539062 C 673.617188 505.515625 657.9375 484.359375 636.269531 461.726562 C 614.535156 439.078125 586.796875 414.957031 555.042969 391.183594 C 523.308594 367.402344 487.660156 343.996094 450.777344 322.746094 C 413.894531 301.503906 375.847656 282.40625 339.503906 266.925781 C 321.332031 259.1875 303.574219 252.335938 286.605469 246.527344 C 269.640625 240.734375 253.46875 235.96875 238.339844 232.292969 C 208.148438 224.992188 182.183594 222.074219 162.746094 224.03125 C 143.269531 225.957031 130.15625 232.59375 124.339844 243.394531 C 118.601562 254.246094 120.109375 269.21875 128.792969 287.199219 C 133.128906 296.1875 139.222656 305.917969 146.992188 316.199219 C 154.796875 326.496094 164.246094 337.34375 175.101562 348.5 C 164.683594 337.449219 155.730469 326.777344 148.449219 316.703125 C 141.117188 306.609375 135.433594 297.105469 131.535156 288.375 C 123.707031 270.902344 123.054688 256.558594 129.464844 246.355469 C 135.800781 236.105469 149.160156 229.964844 168.644531 228.457031 C 188.089844 226.917969 213.550781 229.945312 243.152344 237.308594 C 272.761719 244.691406 306.367188 256.316406 341.585938 271.417969 C 376.796875 286.507812 413.566406 305.054688 449.113281 325.625 C 484.664062 346.195312 519.019531 368.75 549.542969 391.667969 C 580.101562 414.582031 606.734375 437.789062 627.636719 459.605469 C 648.574219 481.429688 663.75 501.828125 671.84375 519.226562 C 680.003906 536.652344 681.042969 551.027344 675.214844 561.441406 C 669.363281 571.847656 656.480469 578.207031 637.429688 579.976562 C 618.390625 581.757812 593.257812 578.96875 563.914062 571.871094 C 534.558594 564.761719 501.015625 553.300781 465.734375 538.328125 C 430.460938 523.371094 393.472656 504.863281 357.539062 484.242188 C 321.585938 463.636719 286.6875 440.890625 255.503906 417.679688 C 239.910156 406.078125 225.25 394.367188 211.789062 382.765625 C 198.28125 371.167969 185.988281 359.679688 175.101562 348.5 " fill-opacity="1" fill-rule="nonzero"/></g><path fill="#000000" d="M 174.808594 369.671875 C 167.175781 365.265625 164.558594 355.515625 168.964844 347.882812 C 173.367188 340.257812 183.125 337.640625 190.757812 342.046875 C 198.382812 346.453125 200.992188 356.207031 196.585938 363.832031 C 192.183594 371.464844 182.433594 374.074219 174.808594 369.671875 " fill-opacity="1" fill-rule="nonzero"/><g clip-path="url(#da938c4008)"><path fill="#000000" d="M 568.675781 234.105469 C 553.867188 237.632812 537.992188 242.230469 521.3125 247.863281 C 504.617188 253.519531 487.128906 260.214844 469.195312 267.796875 C 433.320312 282.96875 395.660156 301.765625 359.046875 322.746094 C 322.445312 343.761719 286.964844 366.941406 255.300781 390.566406 C 223.589844 414.191406 195.914062 438.199219 174.109375 460.796875 C 163.238281 472.085938 153.800781 483.03125 146.042969 493.410156 C 138.285156 503.789062 132.261719 513.582031 128.015625 522.617188 C 119.496094 540.695312 118.269531 555.667969 124.324219 566.453125 C 130.386719 577.234375 143.882812 583.734375 163.667969 585.523438 C 183.4375 587.328125 209.609375 584.324219 240.035156 576.878906 C 270.519531 569.378906 305.277344 557.417969 341.746094 541.804688 C 378.203125 526.210938 416.300781 507.042969 453.144531 485.730469 C 489.984375 464.410156 525.542969 441.011719 557.125 417.269531 C 572.917969 405.398438 587.726562 393.449219 601.238281 381.65625 C 614.738281 369.863281 626.949219 358.238281 637.695312 346.980469 C 659.113281 324.476562 674.621094 303.453125 682.644531 285.640625 C 690.71875 267.808594 691.53125 253.144531 685.089844 242.695312 C 678.558594 232.304688 664.839844 226.125 644.917969 224.65625 C 634.96875 223.914062 623.5 224.332031 610.707031 225.914062 C 597.878906 227.519531 583.769531 230.285156 568.675781 234.105469 C 583.457031 230.609375 597.175781 228.195312 609.542969 226.921875 C 621.945312 225.621094 633.023438 225.453125 642.53125 226.441406 C 661.582031 228.40625 674.324219 235.003906 679.953125 245.664062 C 685.660156 256.273438 684.308594 270.90625 675.867188 288.539062 C 667.480469 306.148438 652.125 326.683594 630.949219 348.636719 C 609.75 370.585938 582.878906 393.878906 552.195312 416.832031 C 521.519531 439.777344 487.074219 462.347656 451.480469 482.84375 C 415.894531 503.347656 379.183594 521.828125 344.078125 536.796875 C 308.953125 551.8125 275.535156 563.261719 246.191406 570.457031 C 216.824219 577.683594 191.570312 580.625 172.457031 578.9375 C 153.28125 577.285156 140.3125 571.007812 134.210938 560.746094 C 128.121094 550.476562 129.054688 536.136719 137.054688 518.753906 C 145.027344 501.378906 160.011719 481.007812 180.824219 459.144531 C 201.664062 437.273438 228.355469 413.960938 258.96875 390.890625 C 289.550781 367.820312 324.078125 345.042969 359.90625 324.230469 C 395.722656 303.402344 432.871094 284.550781 468.5625 269.148438 C 486.414062 261.441406 503.882812 254.609375 520.660156 248.746094 C 537.457031 242.851562 553.554688 237.949219 568.675781 234.105469 " fill-opacity="1" fill-rule="nonzero"/></g><path fill="#000000" d="M 550.488281 223.265625 C 558.121094 218.859375 567.875 221.472656 572.273438 229.101562 C 576.679688 236.730469 574.070312 246.484375 566.4375 250.890625 C 558.8125 255.292969 549.0625 252.675781 544.652344 245.050781 C 540.246094 237.421875 542.863281 227.671875 550.488281 223.265625 " fill-opacity="1" fill-rule="nonzero"/><path fill="#000000" d="M 470.964844 632.152344 C 475.3125 617.5625 479.265625 601.515625 482.730469 584.257812 C 486.175781 566.96875 489.125 548.476562 491.523438 529.152344 C 496.320312 490.496094 498.875 448.488281 499.011719 406.285156 C 499.109375 364.082031 496.773438 321.761719 492.152344 282.527344 C 487.546875 243.257812 480.589844 207.28125 471.929688 177.101562 C 467.585938 162.039062 462.820312 148.398438 457.710938 136.488281 C 452.597656 124.582031 447.132812 114.472656 441.433594 106.265625 C 430.039062 89.855469 417.683594 81.308594 405.316406 81.160156 C 392.945312 81.011719 380.566406 89.453125 369.128906 105.699219 C 357.675781 121.910156 347.191406 146.074219 338.425781 176.15625 C 329.683594 206.300781 322.664062 242.386719 317.949219 281.777344 C 313.226562 321.144531 310.777344 363.722656 310.816406 406.285156 C 310.859375 448.847656 313.34375 491.34375 318.109375 530.5625 C 320.496094 550.171875 323.4375 568.976562 326.894531 586.574219 C 330.359375 604.160156 334.320312 620.554688 338.699219 635.488281 C 347.472656 665.289062 357.933594 689.234375 369.339844 705.089844 C 380.746094 720.988281 393.050781 729.03125 405.316406 728.667969 C 417.578125 728.214844 429.789062 719.417969 441.027344 702.90625 C 446.640625 694.660156 452.015625 684.515625 457.039062 672.648438 C 462.054688 660.738281 466.71875 647.128906 470.964844 632.152344 C 466.59375 646.699219 461.828125 659.789062 456.746094 671.128906 C 451.667969 682.527344 446.28125 692.203125 440.667969 699.941406 C 429.445312 715.460938 417.359375 723.199219 405.316406 722.742188 C 393.273438 722.382812 381.277344 713.890625 370.222656 697.769531 C 359.164062 681.699219 349.058594 658.132812 340.636719 628.820312 C 332.226562 599.476562 325.484375 564.5625 320.957031 526.515625 C 316.421875 488.476562 314.105469 447.359375 314.140625 406.285156 C 314.179688 365.214844 316.535156 324.1875 321.117188 286.289062 C 325.683594 248.371094 332.476562 213.703125 340.910156 184.691406 C 349.339844 155.652344 359.414062 132.308594 370.4375 116.601562 C 381.449219 100.816406 393.378906 92.730469 405.316406 92.574219 C 417.253906 92.4375 429.203125 100.410156 440.261719 116.027344 C 451.320312 131.621094 461.46875 154.785156 469.996094 183.742188 C 478.515625 212.726562 485.359375 247.5 490.03125 285.539062 C 494.722656 323.570312 497.183594 364.855469 497.296875 406.285156 C 497.429688 447.71875 495.179688 489.324219 490.667969 527.933594 C 488.414062 547.238281 485.601562 565.792969 482.289062 583.246094 C 478.992188 600.742188 475.1875 617.132812 470.964844 632.152344 " fill-opacity="1" fill-rule="nonzero"/><path fill="#000000" d="M 489.441406 621.824219 C 489.441406 630.632812 482.300781 637.773438 473.492188 637.773438 C 464.683594 637.773438 457.542969 630.632812 457.542969 621.824219 C 457.542969 613.015625 464.683594 605.875 473.492188 605.875 C 482.300781 605.875 489.441406 613.015625 489.441406 621.824219 " fill-opacity="1" fill-rule="nonzero"/><path fill="#000000" d="M 440 404.921875 C 440 424.296875 424.289062 440.007812 404.914062 440.007812 C 385.539062 440.007812 369.824219 424.296875 369.824219 404.921875 C 369.824219 385.546875 385.539062 369.832031 404.914062 369.832031 C 424.289062 369.832031 440 385.546875 440 404.921875 " fill-opacity="1" fill-rule="nonzero"/><g clip-path="url(#b8fce1fa80)"><g clip-path="url(#3322ca9fca)"><path fill="#ffffff" d="M 346.78125 346.78125 L 475.324219 346.78125 L 475.324219 475.324219 L 346.78125 475.324219 Z M 346.78125 346.78125 " fill-opacity="1" fill-rule="nonzero"/></g></g><g clip-path="url(#c7ba575e7f)"><path fill="#4c91e2" d="M 406.90625 369.296875 C 406.523438 369.296875 406.046875 369.296875 405.667969 369.296875 C 396.132812 369.296875 387.171875 373.015625 380.5 379.6875 C 373.730469 386.457031 370.109375 395.320312 370.109375 404.855469 C 370.109375 414.386719 373.824219 423.351562 380.5 430.023438 C 382.882812 432.40625 385.550781 434.410156 388.410156 435.933594 C 355.523438 425.925781 345.605469 403.332031 345.605469 403.332031 C 345.605469 403.332031 373.253906 360.8125 435.316406 367.199219 L 438.746094 357.664062 C 438.746094 357.664062 438.652344 357.664062 438.652344 357.664062 L 446.085938 337.457031 L 435.503906 357.1875 C 370.203125 348.515625 318.152344 403.710938 318.152344 403.710938 C 318.152344 403.710938 354.570312 442.417969 403.761719 440.507812 C 404.425781 440.507812 405 440.605469 405.667969 440.605469 C 415.199219 440.605469 424.160156 436.886719 430.835938 430.214844 C 437.601562 423.445312 441.226562 414.578125 441.226562 405.046875 C 441.226562 395.511719 437.507812 386.550781 430.835938 379.878906 C 428.925781 377.972656 426.925781 376.351562 424.734375 375.015625 C 455.046875 385.597656 464.296875 406.667969 464.296875 406.667969 C 464.296875 406.667969 436.648438 449.183594 374.589844 442.796875 L 371.15625 452.332031 C 371.15625 452.332031 371.25 452.332031 371.25 452.332031 L 363.816406 472.542969 L 374.398438 452.617188 C 439.796875 461.292969 491.847656 406.09375 491.847656 406.09375 C 491.847656 406.09375 455.714844 367.769531 406.90625 369.296875 Z M 405.761719 429.261719 C 392.320312 429.261719 381.355469 418.296875 381.355469 404.855469 C 381.355469 391.414062 392.320312 380.449219 405.761719 380.449219 C 419.203125 380.449219 430.167969 391.414062 430.167969 404.855469 C 430.167969 418.296875 419.203125 429.261719 405.761719 429.261719 Z M 405.761719 429.261719 " fill-opacity="1" fill-rule="nonzero"/></g><path fill="#4c91e2" d="M 414.152344 404.855469 C 414.152344 405.457031 414.09375 406.050781 413.976562 406.640625 C 413.859375 407.230469 413.683594 407.800781 413.453125 408.359375 C 413.222656 408.914062 412.941406 409.441406 412.609375 409.941406 C 412.273438 410.441406 411.894531 410.902344 411.46875 411.328125 C 411.046875 411.75 410.582031 412.132812 410.082031 412.464844 C 409.585938 412.796875 409.054688 413.082031 408.5 413.3125 C 407.945312 413.539062 407.375 413.714844 406.785156 413.832031 C 406.195312 413.949219 405.601562 414.007812 405 414.007812 C 404.398438 414.007812 403.804688 413.949219 403.214844 413.832031 C 402.625 413.714844 402.050781 413.539062 401.496094 413.3125 C 400.941406 413.082031 400.414062 412.796875 399.914062 412.464844 C 399.414062 412.132812 398.953125 411.75 398.527344 411.328125 C 398.101562 410.902344 397.722656 410.441406 397.390625 409.941406 C 397.054688 409.441406 396.773438 408.914062 396.542969 408.359375 C 396.3125 407.800781 396.140625 407.230469 396.023438 406.640625 C 395.90625 406.050781 395.847656 405.457031 395.847656 404.855469 C 395.847656 404.253906 395.90625 403.660156 396.023438 403.070312 C 396.140625 402.480469 396.3125 401.910156 396.542969 401.351562 C 396.773438 400.796875 397.054688 400.269531 397.390625 399.769531 C 397.722656 399.269531 398.101562 398.808594 398.527344 398.382812 C 398.953125 397.960938 399.414062 397.578125 399.914062 397.246094 C 400.414062 396.910156 400.941406 396.628906 401.496094 396.398438 C 402.050781 396.171875 402.625 395.996094 403.214844 395.878906 C 403.804688 395.761719 404.398438 395.703125 405 395.703125 C 405.601562 395.703125 406.195312 395.761719 406.785156 395.878906 C 407.375 395.996094 407.945312 396.171875 408.5 396.398438 C 409.054688 396.628906 409.585938 396.910156 410.082031 397.246094 C 410.582031 397.578125 411.046875 397.960938 411.46875 398.382812 C 411.894531 398.808594 412.273438 399.269531 412.609375 399.769531 C 412.941406 400.269531 413.222656 400.796875 413.453125 401.351562 C 413.683594 401.910156 413.859375 402.480469 413.976562 403.070312 C 414.09375 403.660156 414.152344 404.253906 414.152344 404.855469 Z M 414.152344 404.855469 " fill-opacity="1" fill-rule="nonzero"/></svg>